<svg width="68" height="68" viewBox="0 0 68 68" fill="none" xmlns="http://www.w3.org/2000/svg">
<circle cx="34" cy="34" r="34" fill="url(#paint0_linear)"/>
<circle cx="34" cy="34" r="34" fill="url(#paint1_linear)"/>
<path fill-rule="evenodd" clip-rule="evenodd" d="M41.6971 44.3204C44.3983 44.3204 46.588 42.1306 46.588 39.4293C46.588 36.7281 44.3983 34.5383 41.6971 34.5383C38.9958 34.5383 36.806 36.7281 36.806 39.4293C36.806 42.1306 38.9958 44.3204 41.6971 44.3204ZM48.2123 39.4293C48.2123 43.0276 45.2953 45.9446 41.6971 45.9446C38.0987 45.9446 35.1818 43.0276 35.1818 39.4293C35.1818 35.831 38.0987 32.9141 41.6971 32.9141C45.2953 32.9141 48.2123 35.831 48.2123 39.4293Z" fill="white"/>
<path fill-rule="evenodd" clip-rule="evenodd" d="M37.6859 42.7989C38.0106 43.1975 37.9506 43.7837 37.552 44.1084C34.1688 46.8642 30.6455 48.7873 27.5307 49.6275C24.46 50.4558 21.5274 50.287 19.6715 48.4311C17.6111 46.3707 17.624 42.9904 18.7973 39.5124C18.9616 39.0254 19.4897 38.7637 19.9767 38.928C20.4638 39.0923 20.7255 39.6204 20.5611 40.1074C19.4475 43.4084 19.7123 45.8394 20.9878 47.1149C22.1333 48.2604 24.2058 48.5964 27.046 47.8303C29.8421 47.076 33.1353 45.3052 36.3764 42.6651C36.775 42.3405 37.3613 42.4004 37.6859 42.7989Z" fill="white"/>
<path fill-rule="evenodd" clip-rule="evenodd" d="M31.1909 24.5751C30.8786 24.1667 30.9564 23.5826 31.3647 23.2702C34.6108 20.7871 37.9456 19.0775 40.8889 18.3678C43.7971 17.6666 46.5555 17.8983 48.3285 19.6714C50.3889 21.7318 50.376 25.1122 49.2028 28.5901C49.0385 29.0772 48.5103 29.3389 48.0233 29.1745C47.5362 29.0102 47.2746 28.4822 47.4389 27.9951C48.5525 24.694 48.2877 22.2631 47.0122 20.9877C45.9187 19.8941 43.9827 19.5366 41.3252 20.1774C38.703 20.8097 35.6009 22.3734 32.4957 24.7488C32.0874 25.0611 31.5033 24.9833 31.1909 24.5751Z" fill="white"/>
<path fill-rule="evenodd" clip-rule="evenodd" d="M34.2526 28.2603C34.2526 31.8586 31.3357 34.7756 27.7374 34.7756C24.1392 34.7756 21.2222 31.8586 21.2222 28.2603C21.2222 24.6621 24.1392 21.7451 27.7374 21.7451C31.3357 21.7451 34.2526 24.6621 34.2526 28.2603ZM27.0857 25.0023H28.3887V27.6081H30.9939V28.9112H28.3887V31.5175H27.0857V28.9112H24.4786V27.6081H27.0857V25.0023Z" fill="white"/>
<path d="M44.0247 39.9886V38.6855H39.3709V39.9886H44.0247Z" fill="white"/>
<defs>
<linearGradient id="paint0_linear" x1="66.725" y1="-6.54684e-06" x2="-4.11021" y2="13.039" gradientUnits="userSpaceOnUse">
<stop stop-color="#B2F355"/>
<stop offset="1" stop-color="#66D7FA"/>
</linearGradient>
<linearGradient id="paint1_linear" x1="34" y1="68" x2="34" y2="34" gradientUnits="userSpaceOnUse">
<stop stop-color="#FFFA8B"/>
<stop offset="1" stop-color="#CFD156" stop-opacity="0"/>
</linearGradient>
</defs>
</svg>
