<svg width="480" height="396" viewBox="0 0 480 396" fill="none" xmlns="http://www.w3.org/2000/svg">
<g opacity="0.4" filter="url(#filter0_f)">
<path d="M233.759 370.95L62.0818 314.564C60.2191 313.952 60.2576 311.304 62.1373 310.746L234.314 259.686C238.025 258.586 241.975 258.586 245.686 259.686L417.863 310.746C419.742 311.304 419.781 313.952 417.918 314.564L246.241 370.95C242.187 372.282 237.813 372.282 233.759 370.95Z" fill="black"/>
</g>
<g opacity="0.5" filter="url(#filter1_f)">
<path d="M233.893 173.914L62.0877 117.535C60.2243 116.923 60.2627 114.274 62.1431 113.717L240.129 60.9801L418.115 113.717C419.995 114.274 420.034 116.923 418.17 117.535L246.365 173.914C242.314 175.243 237.944 175.243 233.893 173.914Z" fill="white"/>
</g>
<path d="M101.043 251.726L101.188 187.217L232.117 244.423C237.225 246.654 243.033 246.653 248.14 244.419L378.91 187.217L379.201 251.709C379.219 255.746 376.808 259.398 373.089 260.968L247.905 313.791C242.933 315.889 237.325 315.889 232.354 313.791L107.155 260.962C103.443 259.395 101.034 255.754 101.043 251.726Z" fill="url(#paint0_linear)"/>
<path d="M232.275 244.168L103.144 189.032C101.493 188.327 101.535 185.972 103.21 185.326L240.129 132.541L377.047 185.326C378.723 185.972 378.764 188.327 377.113 189.032L247.982 244.168C242.966 246.31 237.292 246.31 232.275 244.168Z" fill="url(#paint1_radial)"/>
<g filter="url(#filter2_f)">
<path d="M98.6149 256.247L232.275 313.317C237.292 315.459 242.966 315.459 247.982 313.317L381.643 256.247" stroke="black"/>
</g>
<g filter="url(#filter3_f)">
<path d="M232.275 244.168L103.144 189.032C101.493 188.327 101.535 185.972 103.21 185.326L240.129 132.541L377.047 185.326C378.723 185.972 378.764 188.327 377.113 189.032L247.982 244.168C242.966 246.31 237.292 246.31 232.275 244.168Z" fill="white"/>
</g>
<g opacity="0.5" filter="url(#filter4_f)">
<path d="M234.943 235.676L63.5625 189.662C61.5622 189.125 61.597 186.274 63.6099 185.787L240.129 142.994L416.648 185.787C418.661 186.274 418.696 189.125 416.695 189.662L245.315 235.676C241.918 236.588 238.34 236.588 234.943 235.676Z" fill="white"/>
</g>
<g filter="url(#filter5_f)">
<path d="M232.275 244.168L103.144 189.032C101.493 188.327 101.535 185.972 103.21 185.326L240.129 132.541L377.047 185.326C378.723 185.972 378.764 188.327 377.113 189.032L247.982 244.168C242.966 246.31 237.292 246.31 232.275 244.168Z" stroke="white"/>
</g>
<path d="M101.031 180.265L101.188 117.666L232.207 174.153C237.263 176.333 242.995 176.331 248.051 174.149L378.91 117.666L379.224 180.262C379.229 181.066 378.75 181.794 378.011 182.111L247.995 237.724C242.971 239.873 237.287 239.873 232.264 237.724L102.244 182.109C101.507 181.794 101.029 181.068 101.031 180.265Z" fill="url(#paint2_linear)"/>
<path d="M232.275 175.019L103.144 119.883C101.493 119.178 101.535 116.823 103.21 116.178L232.934 66.1658C237.565 64.3808 242.693 64.3808 247.323 66.1658L377.047 116.178C378.723 116.823 378.764 119.178 377.113 119.883L247.982 175.019C242.966 177.161 237.292 177.161 232.275 175.019Z" fill="url(#paint3_radial)"/>
<g filter="url(#filter6_f)">
<path d="M232.276 175.019L103.145 119.883C101.494 119.178 101.535 116.823 103.21 116.178L232.935 66.1658C237.565 64.3808 242.693 64.3808 247.324 66.1658L377.048 116.178C378.723 116.823 378.765 119.178 377.114 119.883L247.983 175.019C242.966 177.161 237.292 177.161 232.276 175.019Z" stroke="white"/>
</g>
<g filter="url(#filter7_f)">
<path d="M232.285 164.576L123.254 118.093C121.601 117.388 121.643 115.032 123.32 114.386L235.818 71.082C238.593 70.0139 241.665 70.0139 244.44 71.082L356.938 114.386C358.615 115.032 358.657 117.388 357.004 118.093L247.972 164.576C242.962 166.712 237.296 166.712 232.285 164.576Z" fill="url(#paint4_radial)"/>
</g>
<g filter="url(#filter8_f)">
<path d="M100.625 181.589L232.271 237.737C237.29 239.878 242.966 239.875 247.983 237.729L379.231 181.589" stroke="white"/>
</g>
<g filter="url(#filter9_f)">
<path fill-rule="evenodd" clip-rule="evenodd" d="M112.192 163.275L111.846 143.475L113.669 144.304L114.014 164.104L112.192 163.275Z" fill="#1E2435"/>
<path fill-rule="evenodd" clip-rule="evenodd" d="M138.234 175.199L137.888 155.385L139.71 156.161L140.056 175.988L138.234 175.199Z" fill="#1E2435"/>
<path fill-rule="evenodd" clip-rule="evenodd" d="M115.273 164.687L114.927 144.874L115.795 145.236L116.141 165.062L115.273 164.687Z" fill="#1E2435"/>
<path fill-rule="evenodd" clip-rule="evenodd" d="M141.314 176.544L140.968 156.744L141.836 157.16L142.182 176.96L141.314 176.544Z" fill="#1E2435"/>
<path fill-rule="evenodd" clip-rule="evenodd" d="M123.693 168.496L123.347 148.696L124.736 149.345L125.081 169.118L123.693 168.496Z" fill="#1E2435"/>
<path fill-rule="evenodd" clip-rule="evenodd" d="M149.735 180.461L149.39 160.647L150.778 161.256L151.124 181.055L149.735 180.461Z" fill="#1E2435"/>
<path fill-rule="evenodd" clip-rule="evenodd" d="M133.502 173.034L133.156 153.221L134.024 153.609L134.37 173.396L133.502 173.034Z" fill="#1E2435"/>
<path fill-rule="evenodd" clip-rule="evenodd" d="M164.752 187.33L164.406 167.53L165.275 167.945L165.62 187.745L164.752 187.33Z" fill="#1E2435"/>
<path fill-rule="evenodd" clip-rule="evenodd" d="M117.877 165.84L117.531 146.053L119.266 146.79L119.613 166.643L117.877 165.84Z" fill="#1E2435"/>
<path fill-rule="evenodd" clip-rule="evenodd" d="M143.918 177.79L143.573 157.991L145.308 158.754L145.654 178.554L143.918 177.79Z" fill="#1E2435"/>
<path fill-rule="evenodd" clip-rule="evenodd" d="M125.863 169.494L125.517 149.694L127.774 150.731L128.12 170.531L125.863 169.494Z" fill="#1E2435"/>
<path fill-rule="evenodd" clip-rule="evenodd" d="M157.114 183.844L156.768 164.03L159.025 165.04L159.37 184.84L157.114 183.844Z" fill="#1E2435"/>
<path fill-rule="evenodd" clip-rule="evenodd" d="M151.906 181.459L151.56 161.632L153.816 162.642L154.162 182.442L151.906 181.459Z" fill="#1E2435"/>
<path fill-rule="evenodd" clip-rule="evenodd" d="M135.238 173.825L134.893 154.038L135.76 154.413L136.106 174.186L135.238 173.825Z" fill="#1E2435"/>
<path fill-rule="evenodd" clip-rule="evenodd" d="M166.489 188.16L166.143 168.307L167.011 168.695L167.358 188.576L166.489 188.16Z" fill="#1E2435"/>
<path fill-rule="evenodd" clip-rule="evenodd" d="M121.349 167.42L121.003 147.621L121.872 148.036L122.217 167.836L121.349 167.42Z" fill="#1E2435"/>
<path fill-rule="evenodd" clip-rule="evenodd" d="M147.392 179.385L147.046 159.558L147.914 159.973L148.26 179.787L147.392 179.385Z" fill="#1E2435"/>
<path fill-rule="evenodd" clip-rule="evenodd" d="M130.897 171.788L130.551 151.988L131.42 152.444L131.765 172.203L130.897 171.788Z" fill="#1E2435"/>
<path fill-rule="evenodd" clip-rule="evenodd" d="M162.147 186.083L161.802 166.324L162.67 166.699L163.015 186.499L162.147 186.083Z" fill="#1E2435"/>
</g>
<g filter="url(#filter10_f)">
<path fill-rule="evenodd" clip-rule="evenodd" d="M327.203 263.178L327.549 243.364L325.293 244.374L324.947 264.174L327.203 263.178Z" fill="#101728"/>
</g>
<g filter="url(#filter11_f)">
<path fill-rule="evenodd" clip-rule="evenodd" d="M335.065 248.954L316.767 256.56L316.767 259.239L335.065 251.635L335.065 248.954Z" fill="#101728"/>
</g>
<g filter="url(#filter12_f)">
<path d="M312.582 258.463C312.582 250.591 317.341 243.431 324.57 240.302C330.933 237.547 338.116 242.176 338.116 249.093C338.116 256.965 333.357 264.125 326.128 267.254C319.765 270.008 312.582 265.38 312.582 258.463Z" stroke="#0E1424"/>
</g>
<g filter="url(#filter13_f)">
<path fill-rule="evenodd" clip-rule="evenodd" d="M364.295 237.697L347.605 244.5L347.605 247.178L364.295 240.379L364.295 237.697Z" fill="#101728"/>
</g>
<g filter="url(#filter14_f)">
<path d="M343.939 246.005C343.939 238.789 348.255 232.243 354.875 229.365C360.7 226.832 367.245 231.086 367.245 237.43C367.245 244.646 362.929 251.191 356.309 254.07C350.485 256.602 343.939 252.348 343.939 246.005Z" stroke="#0E1424"/>
</g>
<g opacity="0.8" filter="url(#filter15_f)">
<path d="M219.5 130L294 99.5" stroke="black"/>
</g>
<defs>
<filter id="filter0_f" x="36.7059" y="234.861" width="406.588" height="161.088" filterUnits="userSpaceOnUse" color-interpolation-filters="sRGB">
<feFlood flood-opacity="0" result="BackgroundImageFix"/>
<feBlend mode="normal" in="SourceGraphic" in2="BackgroundImageFix" result="shape"/>
<feGaussianBlur stdDeviation="12" result="effect1_foregroundBlur"/>
</filter>
<filter id="filter1_f" x="0.711243" y="0.980103" width="478.835" height="233.931" filterUnits="userSpaceOnUse" color-interpolation-filters="sRGB">
<feFlood flood-opacity="0" result="BackgroundImageFix"/>
<feBlend mode="normal" in="SourceGraphic" in2="BackgroundImageFix" result="shape"/>
<feGaussianBlur stdDeviation="30" result="effect1_foregroundBlur"/>
</filter>
<filter id="filter2_f" x="94.4186" y="251.787" width="291.421" height="67.6362" filterUnits="userSpaceOnUse" color-interpolation-filters="sRGB">
<feFlood flood-opacity="0" result="BackgroundImageFix"/>
<feBlend mode="normal" in="SourceGraphic" in2="BackgroundImageFix" result="shape"/>
<feGaussianBlur stdDeviation="2" result="effect1_foregroundBlur"/>
</filter>
<filter id="filter3_f" x="91.9296" y="122.541" width="296.399" height="133.233" filterUnits="userSpaceOnUse" color-interpolation-filters="sRGB">
<feFlood flood-opacity="0" result="BackgroundImageFix"/>
<feBlend mode="normal" in="SourceGraphic" in2="BackgroundImageFix" result="shape"/>
<feGaussianBlur stdDeviation="5" result="effect1_foregroundBlur"/>
</filter>
<filter id="filter4_f" x="2.08105" y="82.9939" width="476.096" height="213.366" filterUnits="userSpaceOnUse" color-interpolation-filters="sRGB">
<feFlood flood-opacity="0" result="BackgroundImageFix"/>
<feBlend mode="normal" in="SourceGraphic" in2="BackgroundImageFix" result="shape"/>
<feGaussianBlur stdDeviation="30" result="effect1_foregroundBlur"/>
</filter>
<filter id="filter5_f" x="97.4296" y="128.005" width="285.399" height="122.269" filterUnits="userSpaceOnUse" color-interpolation-filters="sRGB">
<feFlood flood-opacity="0" result="BackgroundImageFix"/>
<feBlend mode="normal" in="SourceGraphic" in2="BackgroundImageFix" result="shape"/>
<feGaussianBlur stdDeviation="2" result="effect1_foregroundBlur"/>
</filter>
<filter id="filter6_f" x="97.4299" y="60.327" width="285.399" height="120.798" filterUnits="userSpaceOnUse" color-interpolation-filters="sRGB">
<feFlood flood-opacity="0" result="BackgroundImageFix"/>
<feBlend mode="normal" in="SourceGraphic" in2="BackgroundImageFix" result="shape"/>
<feGaussianBlur stdDeviation="2" result="effect1_foregroundBlur"/>
</filter>
<filter id="filter7_f" x="118.038" y="66.2809" width="244.182" height="103.897" filterUnits="userSpaceOnUse" color-interpolation-filters="sRGB">
<feFlood flood-opacity="0" result="BackgroundImageFix"/>
<feBlend mode="normal" in="SourceGraphic" in2="BackgroundImageFix" result="shape"/>
<feGaussianBlur stdDeviation="2" result="effect1_foregroundBlur"/>
</filter>
<filter id="filter8_f" x="96.4288" y="177.129" width="286.998" height="66.7121" filterUnits="userSpaceOnUse" color-interpolation-filters="sRGB">
<feFlood flood-opacity="0" result="BackgroundImageFix"/>
<feBlend mode="normal" in="SourceGraphic" in2="BackgroundImageFix" result="shape"/>
<feGaussianBlur stdDeviation="2" result="effect1_foregroundBlur"/>
</filter>
<filter id="filter9_f" x="110.846" y="142.475" width="57.5117" height="47.101" filterUnits="userSpaceOnUse" color-interpolation-filters="sRGB">
<feFlood flood-opacity="0" result="BackgroundImageFix"/>
<feBlend mode="normal" in="SourceGraphic" in2="BackgroundImageFix" result="shape"/>
<feGaussianBlur stdDeviation="0.5" result="effect1_foregroundBlur"/>
</filter>
<filter id="filter10_f" x="323.947" y="242.364" width="4.60216" height="22.8099" filterUnits="userSpaceOnUse" color-interpolation-filters="sRGB">
<feFlood flood-opacity="0" result="BackgroundImageFix"/>
<feBlend mode="normal" in="SourceGraphic" in2="BackgroundImageFix" result="shape"/>
<feGaussianBlur stdDeviation="0.5" result="effect1_foregroundBlur"/>
</filter>
<filter id="filter11_f" x="315.767" y="247.954" width="20.2981" height="12.2851" filterUnits="userSpaceOnUse" color-interpolation-filters="sRGB">
<feFlood flood-opacity="0" result="BackgroundImageFix"/>
<feBlend mode="normal" in="SourceGraphic" in2="BackgroundImageFix" result="shape"/>
<feGaussianBlur stdDeviation="0.5" result="effect1_foregroundBlur"/>
</filter>
<filter id="filter12_f" x="311.082" y="237.994" width="28.5339" height="31.5672" filterUnits="userSpaceOnUse" color-interpolation-filters="sRGB">
<feFlood flood-opacity="0" result="BackgroundImageFix"/>
<feBlend mode="normal" in="SourceGraphic" in2="BackgroundImageFix" result="shape"/>
<feGaussianBlur stdDeviation="0.5" result="effect1_foregroundBlur"/>
</filter>
<filter id="filter13_f" x="346.605" y="236.697" width="18.69" height="11.481" filterUnits="userSpaceOnUse" color-interpolation-filters="sRGB">
<feFlood flood-opacity="0" result="BackgroundImageFix"/>
<feBlend mode="normal" in="SourceGraphic" in2="BackgroundImageFix" result="shape"/>
<feGaussianBlur stdDeviation="0.5" result="effect1_foregroundBlur"/>
</filter>
<filter id="filter14_f" x="342.439" y="227.122" width="26.3055" height="29.191" filterUnits="userSpaceOnUse" color-interpolation-filters="sRGB">
<feFlood flood-opacity="0" result="BackgroundImageFix"/>
<feBlend mode="normal" in="SourceGraphic" in2="BackgroundImageFix" result="shape"/>
<feGaussianBlur stdDeviation="0.5" result="effect1_foregroundBlur"/>
</filter>
<filter id="filter15_f" x="203.311" y="83.0373" width="106.879" height="63.4254" filterUnits="userSpaceOnUse" color-interpolation-filters="sRGB">
<feFlood flood-opacity="0" result="BackgroundImageFix"/>
<feBlend mode="normal" in="SourceGraphic" in2="BackgroundImageFix" result="shape"/>
<feGaussianBlur stdDeviation="8" result="effect1_foregroundBlur"/>
</filter>
<linearGradient id="paint0_linear" x1="101.028" y1="230.756" x2="379.235" y2="233.812" gradientUnits="userSpaceOnUse">
<stop stop-color="#3E5568"/>
<stop offset="0.0161614" stop-color="#282E3F"/>
<stop offset="0.174129" stop-color="#2F3043"/>
<stop offset="0.283506" stop-color="#35384A"/>
<stop offset="0.465801" stop-color="#3E4251"/>
<stop offset="0.501178" stop-color="#464759"/>
<stop offset="0.582192" stop-color="#2E3346"/>
<stop offset="0.70018" stop-color="#1C2337"/>
<stop offset="0.825182" stop-color="#151D30"/>
<stop offset="0.982007" stop-color="#191F30"/>
<stop offset="1" stop-color="#284558"/>
</linearGradient>
<radialGradient id="paint1_radial" cx="0" cy="0" r="1" gradientUnits="userSpaceOnUse" gradientTransform="translate(240.129 190.031) rotate(90) scale(57.49 141.514)">
<stop stop-color="#CBCAC4"/>
<stop offset="0.895105" stop-color="#838087"/>
<stop offset="1" stop-color="#A2A2AB"/>
</radialGradient>
<linearGradient id="paint2_linear" x1="101.028" y1="159.075" x2="379.231" y2="162.291" gradientUnits="userSpaceOnUse">
<stop stop-color="#3E5568"/>
<stop offset="0.0161614" stop-color="#282E3F"/>
<stop offset="0.174129" stop-color="#36374A"/>
<stop offset="0.283506" stop-color="#3B3E4E"/>
<stop offset="0.465801" stop-color="#3E4251"/>
<stop offset="0.501178" stop-color="#464759"/>
<stop offset="0.582192" stop-color="#2E3346"/>
<stop offset="0.70018" stop-color="#262C3F"/>
<stop offset="0.825182" stop-color="#1E263A"/>
<stop offset="0.982007" stop-color="#191F30"/>
<stop offset="1" stop-color="#284558"/>
</linearGradient>
<radialGradient id="paint3_radial" cx="0" cy="0" r="1" gradientUnits="userSpaceOnUse" gradientTransform="translate(240.129 120.882) rotate(90) scale(57.49 141.514)">
<stop stop-color="#CBCAC4"/>
<stop offset="0.895105" stop-color="#838087"/>
<stop offset="1" stop-color="#A2A2AB"/>
</radialGradient>
<radialGradient id="paint4_radial" cx="0" cy="0" r="1" gradientUnits="userSpaceOnUse" gradientTransform="translate(240.129 118.671) rotate(90) scale(49.2485 121.413)">
<stop stop-color="#D3F355"/>
<stop offset="1" stop-color="white" stop-opacity="0.75"/>
</radialGradient>
</defs>
</svg>
