<svg width="12" height="12" viewBox="0 0 12 12" fill="none"
  xmlns="http://www.w3.org/2000/svg">
  <path fill-rule="evenodd" clip-rule="evenodd" d="M0 7.6C0 7.26863 0.268629 7 0.6 7C0.931371 7 1.2 7.26863 1.2 7.6V10.8H10.8V7.6C10.8 7.26863 11.0686 7 11.4 7C11.7314 7 12 7.26863 12 7.6V11C12 11.5523 11.5523 12 11 12H1C0.447715 12 0 11.5523 0 11V7.6Z" fill="black"/>
  <path fill-rule="evenodd" clip-rule="evenodd" d="M6 8L3 5C2.76569 4.76569 2.76569 4.38579 3 4.15147C3.23431 3.91716 3.61421 3.91716 3.84853 4.15147L5.4 5.70294L5.39997 0.599977C5.39997 0.268604 5.6686 -2.70312e-05 5.99997 -2.70022e-05C6.33134 -2.69733e-05 6.59997 0.2686 6.59997 0.59997L6.6 5.70294L8.15147 4.15147C8.38579 3.91716 8.76569 3.91716 9 4.15147C9.23431 4.38579 9.23431 4.76569 9 5L6 8Z" fill="black"/>
</svg>
