<svg width="12" height="12" viewBox="0 0 12 12" fill="none"
  xmlns="http://www.w3.org/2000/svg">
  <path fill-rule="evenodd" clip-rule="evenodd" d="M2.92603 4.7268L4.99716 6.53905C5.28811 6.79362 5.31759 7.23586 5.06301 7.5268C4.80844 7.81775 4.3662 7.84723 4.07526 7.59265L0 4.0268L4.07526 0.460953C4.3662 0.206376 4.80844 0.235858 5.06301 0.526804C5.31759 0.817749 5.28811 1.25998 4.99716 1.51456L2.92603 3.3268H11C11.5523 3.3268 12 3.77452 12 4.3268V10.7268C12 11.2791 11.5523 11.7268 11 11.7268H6.76301C6.37642 11.7268 6.06301 11.4134 6.06301 11.0268C6.06301 10.6402 6.37641 10.3268 6.76301 10.3268H10.6V4.7268H2.92603Z" fill="black"/>
</svg>
