<svg width="100" height="100" viewBox="0 0 100 100" fill="none"
  xmlns="http://www.w3.org/2000/svg">
  <g opacity="0.2">
    <path fill-rule="evenodd" clip-rule="evenodd" d="M34 53.666C34 53.1137 34.4477 52.666 35 52.666H36.2001C36.7523 52.666 37.2001 53.1137 37.2001 53.666V62.7995H62.8005V53.666C62.8005 53.1137 63.2482 52.666 63.8005 52.666H65.0005C65.5528 52.666 66.0005 53.1137 66.0005 53.666V64.9996C66.0005 65.5519 65.5528 65.9996 65.0005 65.9996H35C34.4477 65.9996 34 65.5519 34 64.9996V53.666Z" fill="black"/>
    <path fill-rule="evenodd" clip-rule="evenodd" d="M50.0003 55.334L41.5759 46.9096C41.1854 46.519 41.1854 45.8859 41.5759 45.4953L42.4245 44.6468C42.815 44.2563 43.4482 44.2563 43.8387 44.6468L48.4003 49.2084L48.4002 35.0002C48.4002 34.4479 48.8479 34.0002 49.4002 34.0002L50.6003 34.0002C51.1526 34.0002 51.6003 34.4479 51.6003 35.0002L51.6004 49.2084L56.162 44.6468C56.5525 44.2563 57.1857 44.2563 57.5762 44.6468L58.4248 45.4954C58.8153 45.8859 58.8153 46.519 58.4248 46.9096L50.0003 55.334Z" fill="black"/>
  </g>
</svg>
