<svg width="20" height="18" viewBox="0 0 20 18" fill="none"
  xmlns="http://www.w3.org/2000/svg">
  <path fill-rule="evenodd" clip-rule="evenodd" d="M0.655457 1.06667C0.655457 0.477564 1.13302 0 1.72212 0H10.5221C11.1112 0 11.5888 0.477563 11.5888 1.06667V4.99997H9.98879V1.6H2.25546L2.25546 16.4H9.98879V13H11.5888L11.5888 16.9333C11.5888 17.5224 11.1112 18 10.5221 18H1.72212C1.13302 18 0.655457 17.5224 0.655457 16.9333L0.655457 1.06667Z" fill="black"/>
  <path fill-rule="evenodd" clip-rule="evenodd" d="M16.2781 5.16699L19.3446 9.00008L16.2781 12.8332L15.0287 11.8337L16.6556 9.80008L6.12225 9.79995V8.19995L16.6556 8.20008L15.0287 6.1665L16.2781 5.16699Z" fill="black"/>
</svg>
