<svg width="16" height="16" viewBox="0 0 16 16" fill="white" xmlns="http://www.w3.org/2000/svg">
<path d="M7.42849 0C3.3325 0 0 3.3325 0 7.4285C0 11.5245 3.3325 14.857 7.42849 14.857C9.27099 14.857 10.958 14.181 12.2575 13.066L15.0245 15.833L15.2005 16L16.0005 15.2L15.8325 15.024L13.065 12.257C14.1805 10.9575 14.857 9.271 14.857 7.428C14.857 3.332 11.5245 0 7.42849 0ZM7.42849 1.1425C10.9065 1.1425 13.714 3.95 13.714 7.428C13.714 10.906 10.9065 13.7135 7.42849 13.7135C3.9505 13.7135 1.143 10.906 1.143 7.428C1.143 3.95 3.9505 1.1425 7.42849 1.1425Z" />
</svg>
