<svg width="12" height="12" viewBox="0 0 12 12" fill="none"
  xmlns="http://www.w3.org/2000/svg">
  <path fill-rule="evenodd" clip-rule="evenodd" d="M7.03135 7.68731C6.81672 7.43155 6.84157 7.0428 7.08686 6.81901L9.83918 4.30792L0.590348 4.30791C0.264414 4.30791 0.000192966 4.03241 0.000192995 3.69257C0.000193023 3.35272 0.264414 3.07722 0.590348 3.07722L9.63938 3.07722L7.12139 1.1081C6.86064 0.904192 6.8078 0.51849 7.00336 0.246612C7.19892 -0.0252666 7.56883 -0.0803665 7.82958 0.123542L11.7639 3.20029C11.9063 3.31162 11.9929 3.48398 11.9996 3.6694C12.0063 3.85481 11.9324 4.03348 11.7985 4.15566L7.8641 7.7452C7.61881 7.96899 7.24597 7.94307 7.03135 7.68731Z" fill="black"/>
  <path fill-rule="evenodd" clip-rule="evenodd" d="M0 11.3849C0 11.045 0.264221 10.7695 0.590154 10.7695H11.4097C11.7356 10.7695 11.9998 11.045 11.9998 11.3849C11.9998 11.7247 11.7356 12.0002 11.4097 12.0002H0.590154C0.264221 12.0002 0 11.7247 0 11.3849Z" fill="black"/>
</svg>
