<svg width="16" height="16" viewBox="0 0 16 16" fill="none" xmlns="http://www.w3.org/2000/svg">
<path fill-rule="evenodd" clip-rule="evenodd" d="M5.87793 0H10.1225L10.4154 2.04606C10.966 2.2697 11.4787 2.56755 11.941 2.92731L13.8629 2.15759L15.9996 5.85026L14.3639 7.13137C14.4023 7.41572 14.4222 7.70575 14.4222 8.00011C14.4222 8.29402 14.4024 8.5836 14.3641 8.86753L16 10.1488L13.8633 13.8415L11.9421 13.072C11.4795 13.4322 10.9665 13.7304 10.4154 13.9542L10.1225 16H5.87793L5.58486 13.9531C5.03423 13.7292 4.5216 13.431 4.05945 13.071L2.13673 13.841L0 10.1483L1.63853 8.86503C1.60041 8.5819 1.58075 8.29316 1.58075 8.00011C1.58075 7.70661 1.60047 7.41742 1.63871 7.13387L0.000370034 5.85073L2.1371 2.15806L4.06056 2.92839C4.52242 2.56873 5.03466 2.2709 5.58483 2.04715L5.87793 0ZM6.96269 1.28736L6.71622 3.00875L6.34702 3.13281C5.68836 3.35413 5.08942 3.70404 4.58016 4.1522L4.29405 4.40398L2.67312 3.75482L1.65009 5.5228L3.0159 6.5925L2.93642 6.98841C2.87086 7.315 2.83637 7.65323 2.83637 8.00011C2.83637 8.34659 2.87078 8.68445 2.9362 9.01069L3.01557 9.40652L1.64972 10.4763L2.67274 12.2442L4.29311 11.5953L4.57924 11.8472C5.08871 12.2958 5.68798 12.646 6.34705 12.8674L6.71626 12.9915L6.96269 14.7126H9.0377L9.28403 12.9922L9.65349 12.8682C10.313 12.647 10.9127 12.2968 11.4225 11.8482L11.7086 11.5965L13.3273 12.2447L14.3503 10.4767L12.9867 9.40879L13.0663 9.01281C13.132 8.68591 13.1666 8.34734 13.1666 8.00011C13.1666 7.65248 13.1319 7.31355 13.0661 6.9863L12.9864 6.59023L14.3499 5.52232L13.3269 3.75434L11.7077 4.40281L11.4216 4.15119C10.912 3.70298 10.3126 3.35312 9.65352 3.13201L9.28406 3.00807L9.0377 1.28736H6.96269Z" fill="black"/>
<path fill-rule="evenodd" clip-rule="evenodd" d="M7.99983 10.3896C9.28768 10.3896 10.3317 9.31924 10.3317 7.99884C10.3317 6.67843 9.28768 5.60803 7.99983 5.60803C6.71198 5.60803 5.66797 6.67843 5.66797 7.99884C5.66797 9.31924 6.71198 10.3896 7.99983 10.3896ZM7.99983 11.677C9.98114 11.677 11.5873 10.0302 11.5873 7.99884C11.5873 5.96745 9.98114 4.32068 7.99983 4.32068C6.01852 4.32068 4.41235 5.96745 4.41235 7.99884C4.41235 10.0302 6.01852 11.677 7.99983 11.677Z" fill="black"/>
</svg>
