<svg width="21" height="20" viewBox="0 0 21 20" fill="none"
  xmlns="http://www.w3.org/2000/svg">
  <path fill-rule="evenodd" clip-rule="evenodd" d="M7.84741 0H13.1531L13.5192 2.55757C14.2075 2.83712 14.8484 3.20943 15.4262 3.65913L17.8286 2.69699L20.4995 7.31282L18.4548 8.91422C18.5029 9.26965 18.5277 9.63218 18.5277 10.0001C18.5277 10.3675 18.503 10.7295 18.4551 11.0844L20.5 12.686L17.8291 17.3018L15.4276 16.3401C14.8494 16.7903 14.2081 17.1629 13.5192 17.4427L13.1531 20H7.84741L7.48108 17.4414C6.79279 17.1614 6.152 16.7888 5.57431 16.3387L3.17092 17.3012L0.5 12.6854L2.54816 11.0813C2.50051 10.7274 2.47594 10.3664 2.47594 10.0001C2.47594 9.63326 2.50058 9.27178 2.54838 8.91734L0.500463 7.31342L3.17138 2.69758L5.5757 3.66049C6.15302 3.21091 6.79332 2.83862 7.48103 2.55894L7.84741 0ZM9.20336 1.6092L8.89528 3.76094L8.43377 3.91601C7.61045 4.19266 6.86177 4.63005 6.2252 5.19025L5.86756 5.50498L3.84139 4.69352L2.56261 6.9035L4.26988 8.24063L4.17053 8.73551C4.08857 9.14375 4.04546 9.56654 4.04546 10.0001C4.04546 10.4332 4.08847 10.8556 4.17025 11.2634L4.26946 11.7582L2.56214 13.0953L3.84093 15.3053L5.86639 14.4941L6.22405 14.809C6.86088 15.3697 7.60997 15.8075 8.43381 16.0843L8.89532 16.2393L9.20336 18.3908H11.7971L12.105 16.2402L12.5669 16.0853C13.3913 15.8087 14.1409 15.371 14.7782 14.8103L15.1358 14.4956L17.1591 15.3059L18.4379 13.0959L16.7334 11.761L16.8329 11.266C16.915 10.8574 16.9582 10.4342 16.9582 10.0001C16.9582 9.5656 16.9149 9.14193 16.8326 8.73287L16.733 8.23779L18.4374 6.9029L17.1586 4.69293L15.1346 5.50351L14.777 5.18899C14.14 4.62873 13.3908 4.1914 12.5669 3.91501L12.1051 3.76009L11.7971 1.6092H9.20336Z" fill="black"/>
  <path fill-rule="evenodd" clip-rule="evenodd" d="M10.4997 12.9866C12.1095 12.9866 13.4146 11.6486 13.4146 9.99809C13.4146 8.34758 12.1095 7.00959 10.4997 7.00959C8.88992 7.00959 7.5849 8.34758 7.5849 9.99809C7.5849 11.6486 8.88992 12.9866 10.4997 12.9866ZM10.4997 14.5958C12.9764 14.5958 14.9841 12.5373 14.9841 9.99809C14.9841 7.45885 12.9764 5.40039 10.4997 5.40039C8.02309 5.40039 6.01538 7.45885 6.01538 9.99809C6.01538 12.5373 8.02309 14.5958 10.4997 14.5958Z" fill="black"/>
</svg>
