<svg width="13" height="13" viewBox="0 0 13 13" fill="none"
  xmlns="http://www.w3.org/2000/svg">
  <path fill-rule="evenodd" clip-rule="evenodd" d="M3.31182 3.80045L5.07026 1.99029C5.33963 1.71299 5.33321 1.26982 5.05591 1.00045C4.77861 0.731068 4.33544 0.737491 4.06606 1.01479L0 5.20045H11.3559C11.7425 5.20045 12.0559 4.88704 12.0559 4.50045C12.0559 4.11385 11.7425 3.80045 11.3559 3.80045H3.31182Z" fill="black"/>
  <path fill-rule="evenodd" clip-rule="evenodd" d="M8.73386 9.20026L7.02684 11.0107C6.76163 11.292 6.77466 11.735 7.05594 12.0003C7.33723 12.2655 7.78025 12.2524 8.04547 11.9712L11.978 7.80026L0.755943 7.80026C0.369344 7.80026 0.0559439 8.11366 0.0559438 8.50026C0.0559438 8.88686 0.369344 9.20026 0.755944 9.20026L8.73386 9.20026Z" fill="black"/>
</svg>
