<svg width="12" height="13" viewBox="0 0 12 13" fill="none"
  xmlns="http://www.w3.org/2000/svg">
  <path fill-rule="evenodd" clip-rule="evenodd" d="M10.6 6.90098H1.4V11.101H10.6V6.90098ZM1 5.50098C0.447715 5.50098 0 5.94869 0 6.50098V11.501C0 12.0533 0.447715 12.501 1 12.501H11C11.5523 12.501 12 12.0533 12 11.501V6.50098C12 5.94869 11.5523 5.50098 11 5.50098H1Z" fill="black"/>
  <path fill-rule="evenodd" clip-rule="evenodd" d="M1.80005 1.5C1.80005 0.947715 2.24776 0.5 2.80005 0.5H9.20005C9.75233 0.5 10.2 0.947716 10.2 1.5V2.80078C10.2 3.18738 9.88665 3.50078 9.50005 3.50078C9.11345 3.50078 8.80005 3.18738 8.80005 2.80078V1.9H3.20005V5.50039H1.80005V1.5Z" fill="black"/>
</svg>
